<?xml version="1.0" encoding="UTF-8" standalone="no"?>
<!-- Created with Inkscape (http://www.inkscape.org/) -->

<svg
   width="165.57704mm"
   height="28.575001mm"
   viewBox="0 0 625.80299 108"
   version="1.1"
   id="svg1"
   xml:space="preserve"
   sodipodi:docname="logotext_main.svg"
   inkscape:version="1.4.2 (ebf0e940d0, 2025-05-08)"
   xmlns:inkscape="http://www.inkscape.org/namespaces/inkscape"
   xmlns:sodipodi="http://sodipodi.sourceforge.net/DTD/sodipodi-0.dtd"
   xmlns="http://www.w3.org/2000/svg"
   xmlns:svg="http://www.w3.org/2000/svg"><sodipodi:namedview
     id="namedview1"
     pagecolor="#000000"
     bordercolor="#000000"
     borderopacity="0.25"
     inkscape:showpageshadow="2"
     inkscape:pageopacity="0.0"
     inkscape:pagecheckerboard="true"
     inkscape:deskcolor="#808080"
     inkscape:document-units="mm"
     inkscape:zoom="2.4800077"
     inkscape:cx="460.68406"
     inkscape:cy="40.524068"
     inkscape:window-width="1536"
     inkscape:window-height="932"
     inkscape:window-x="0"
     inkscape:window-y="0"
     inkscape:window-maximized="1"
     inkscape:current-layer="layer3" /><defs
     id="defs1"><rect
       x="4.9447684"
       y="6.5930247"
       width="825.77631"
       height="271.96225"
       id="rect1" /></defs><g
     inkscape:groupmode="layer"
     id="layer3"
     inkscape:label="Layer 1"
     transform="translate(-66.869881,-1.9702616)"><path
       d="M 112.89125,25.932883 V 37.026212 H 87.37659 v 14.50666 h 19.54132 V 62.199534 H 87.37659 v 14.805328 h 25.51466 V 88.09819 H 72.869929 V 25.932883 Z m 23.80803,17.151993 q 2.816,0 5.29067,0.554666 2.51733,0.554667 4.65066,1.578666 h 13.35466 v 4.821332 q 0,1.109332 -0.64,1.749332 -0.59733,0.64 -2.09066,0.981333 l -3.24267,0.725333 q 0.59734,1.919999 0.59734,3.967998 0,3.327999 -1.408,5.973331 -1.36534,2.645332 -3.79734,4.522665 -2.38933,1.834666 -5.67466,2.858666 -3.28533,0.981332 -7.04,0.981332 -2.09066,0 -3.92533,-0.255999 -1.45067,0.853333 -1.45067,1.962665 0,1.109333 1.152,1.621333 1.19467,0.469333 3.11467,0.682666 1.92,0.170667 4.39466,0.256 2.47467,0.04267 5.03467,0.298667 2.56,0.213333 5.03466,0.768 2.47467,0.554666 4.39467,1.791999 1.92,1.237333 3.072,3.327998 1.19466,2.048 1.19466,5.247998 0,2.986666 -1.45066,5.845331 -1.45067,2.858666 -4.26667,5.077331 -2.816,2.218671 -6.91199,3.541331 -4.096,1.36533 -9.38667,1.36533 -5.20533,0 -9.00266,-0.98133 -3.75467,-0.98133 -6.272,-2.602665 -2.47466,-1.578666 -3.66933,-3.669331 -1.19467,-2.090666 -1.19467,-4.351999 0,-2.943998 1.792,-4.949331 1.792,-2.047999 4.90667,-3.199998 -1.49333,-0.981333 -2.38933,-2.517333 -0.896,-1.535999 -0.896,-3.882665 0,-0.981333 0.34133,-2.047999 0.34133,-1.109333 1.06667,-2.133332 0.72533,-1.024 1.83466,-1.962666 1.10933,-0.938667 2.64533,-1.664 -3.45599,-1.834665 -5.46133,-4.863998 -1.96266,-3.029332 -1.96266,-7.039997 0,-3.327998 1.408,-5.97333 1.408,-2.687999 3.83999,-4.522665 2.47467,-1.877333 5.80267,-2.858666 3.328,-1.023999 7.21066,-1.023999 z m 9.81333,46.634647 q 0,-1.066666 -0.68266,-1.706666 -0.64,-0.64 -1.792,-1.024 -1.10934,-0.383999 -2.64534,-0.554666 -1.49333,-0.170667 -3.24266,-0.256 -1.74933,-0.08533 -3.62667,-0.128 -1.87733,-0.08533 -3.712,-0.298666 -1.23733,0.853333 -2.04799,1.919999 -0.768,1.023999 -0.768,2.346666 0,0.938666 0.384,1.706665 0.42666,0.768 1.45066,1.322667 1.024,0.554666 2.73067,0.853333 1.74933,0.341333 4.39466,0.341333 2.85867,0 4.69333,-0.341333 1.83467,-0.341334 2.90134,-0.938667 1.10933,-0.597333 1.536,-1.450666 0.42666,-0.810666 0.42666,-1.791999 z m -9.81333,-26.069322 q 3.28533,0 4.736,-1.621333 1.49333,-1.663999 1.49333,-4.266665 0,-2.687999 -1.49333,-4.223998 -1.45067,-1.536 -4.736,-1.536 -3.28533,0 -4.77866,1.536 -1.45067,1.535999 -1.45067,4.223998 0,1.279999 0.34133,2.346666 0.384,1.066666 1.152,1.877332 0.768,0.768 1.92,1.237333 1.19467,0.426667 2.816,0.426667 z m 44.62938,-20.565325 q 2.816,0 5.29066,0.554666 2.51733,0.554667 4.65067,1.578666 h 13.35466 v 4.821332 q 0,1.109332 -0.64,1.749332 -0.59733,0.64 -2.09067,0.981333 l -3.24266,0.725333 q 0.59733,1.919999 0.59733,3.967998 0,3.327999 -1.408,5.973331 -1.36533,2.645332 -3.79733,4.522665 -2.38933,1.834666 -5.67466,2.858666 -3.28534,0.981332 -7.04,0.981332 -2.09067,0 -3.92533,-0.255999 -1.45067,0.853333 -1.45067,1.962665 0,1.109333 1.152,1.621333 1.19467,0.469333 3.11467,0.682666 1.91999,0.170667 4.39466,0.256 2.47467,0.04267 5.03466,0.298667 2.56,0.213333 5.03467,0.768 2.47466,0.554666 4.39466,1.791999 1.92,1.237333 3.072,3.327998 1.19467,2.048 1.19467,5.247998 0,2.986666 -1.45067,5.845331 -1.45066,2.858666 -4.26666,5.077331 -2.816,2.218671 -6.912,3.541331 -4.096,1.36533 -9.38666,1.36533 -5.20533,0 -9.00266,-0.98133 -3.75467,-0.98133 -6.272,-2.602665 -2.47467,-1.578666 -3.66933,-3.669331 -1.19467,-2.090666 -1.19467,-4.351999 0,-2.943998 1.792,-4.949331 1.792,-2.047999 4.90666,-3.199998 -1.49333,-0.981333 -2.38933,-2.517333 -0.896,-1.535999 -0.896,-3.882665 0,-0.981333 0.34133,-2.047999 0.34134,-1.109333 1.06667,-2.133332 0.72533,-1.024 1.83467,-1.962666 1.10933,-0.938667 2.64533,-1.664 -3.456,-1.834665 -5.46133,-4.863998 -1.96267,-3.029332 -1.96267,-7.039997 0,-3.327998 1.408,-5.97333 1.408,-2.687999 3.84,-4.522665 2.47467,-1.877333 5.80266,-2.858666 3.328,-1.023999 7.21067,-1.023999 z m 9.81333,46.634647 q 0,-1.066666 -0.68267,-1.706666 -0.64,-0.64 -1.792,-1.024 -1.10933,-0.383999 -2.64533,-0.554666 -1.49333,-0.170667 -3.24267,-0.256 -1.74933,-0.08533 -3.62666,-0.128 -1.87733,-0.08533 -3.712,-0.298666 -1.23733,0.853333 -2.048,1.919999 -0.768,1.023999 -0.768,2.346666 0,0.938666 0.384,1.706665 0.42667,0.768 1.45067,1.322667 1.024,0.554666 2.73066,0.853333 1.74934,0.341333 4.39467,0.341333 2.85866,0 4.69333,-0.341333 1.83467,-0.341334 2.90133,-0.938667 1.10933,-0.597333 1.536,-1.450666 0.42667,-0.810666 0.42667,-1.791999 z m -9.81333,-26.069322 q 3.28533,0 4.736,-1.621333 1.49333,-1.663999 1.49333,-4.266665 0,-2.687999 -1.49333,-4.223998 -1.45067,-1.536 -4.736,-1.536 -3.28533,0 -4.77867,1.536 -1.45066,1.535999 -1.45066,4.223998 0,1.279999 0.34133,2.346666 0.384,1.066666 1.152,1.877332 0.768,0.768 1.92,1.237333 1.19467,0.426667 2.816,0.426667 z m 56.06403,-10.111996 q -0.512,0.810666 -1.10933,1.151999 -0.55467,0.341333 -1.45067,0.341333 -0.93866,0 -1.87733,-0.383999 -0.93867,-0.426667 -2.048,-0.896 -1.06667,-0.469333 -2.432,-0.853333 -1.36533,-0.426666 -3.11466,-0.426666 -2.51734,0 -3.88267,0.981332 -1.32266,0.938667 -1.32266,2.645333 0,1.237332 0.85333,2.047999 0.896,0.810666 2.34666,1.450666 1.45067,0.597333 3.28534,1.151999 1.83466,0.554667 3.75466,1.237333 1.92,0.682667 3.75467,1.621333 1.83466,0.895999 3.28533,2.261332 1.45066,1.322666 2.304,3.242666 0.896,1.919999 0.896,4.607998 0,3.285332 -1.19467,6.058664 -1.19467,2.773332 -3.584,4.778664 -2.34666,2.005333 -5.84533,3.114666 -3.456,1.109333 -7.97866,1.109333 -2.26133,0 -4.52267,-0.426667 -2.26133,-0.426666 -4.39466,-1.151999 -2.09067,-0.725333 -3.88267,-1.706666 -1.792,-1.024 -3.072,-2.175999 l 3.072,-4.863998 q 0.55467,-0.853333 1.32267,-1.322666 0.768,-0.512 2.00533,-0.512 1.152,0 2.048,0.512 0.93867,0.511999 2.00533,1.109332 1.06667,0.597334 2.47467,1.109333 1.45067,0.512 3.62666,0.512 1.536,0 2.60267,-0.298666 1.06667,-0.341334 1.70667,-0.896 0.64,-0.554667 0.93866,-1.237333 0.29867,-0.682666 0.29867,-1.407999 0,-1.322666 -0.896,-2.175999 -0.896,-0.853333 -2.34667,-1.450666 -1.45066,-0.64 -3.328,-1.152 -1.83466,-0.554666 -3.75466,-1.237333 -1.92,-0.682666 -3.79733,-1.621332 -1.83467,-0.981333 -3.28533,-2.431999 -1.45067,-1.493333 -2.34667,-3.626666 -0.896,-2.133332 -0.896,-5.162664 0,-2.815999 1.06667,-5.333331 1.10933,-2.559999 3.28533,-4.479998 2.176,-1.92 5.46133,-3.029332 3.28533,-1.152 7.68,-1.152 2.38933,0 4.60799,0.426667 2.26134,0.426666 4.224,1.194666 1.96267,0.767999 3.584,1.834666 1.62133,1.023999 2.85867,2.261332 z m 50.1761,-28.287988 q 4.13867,0 7.296,1.237332 3.15733,1.194667 5.33333,3.199999 2.176,1.962666 3.41333,4.565331 1.23733,2.602666 1.536,5.333332 l -8.53333,1.706666 q -0.21333,0.04267 -0.384,0.08533 -0.128,0 -0.29867,0 -1.79199,0 -2.64533,-1.877333 -0.98133,-2.218665 -2.304,-3.370665 -1.28,-1.152 -3.41333,-1.152 -1.49333,0 -2.60266,0.554667 -1.10934,0.554666 -1.87734,1.450666 -0.72533,0.896 -1.10933,2.090666 -0.384,1.194666 -0.384,2.474665 0,1.109333 0.17067,2.133333 0.21333,1.023999 0.64,2.090666 0.46933,1.023999 1.23733,2.133332 0.81067,1.109333 2.048,2.389332 l 15.35999,16.213327 q 1.152,-2.559999 1.83467,-5.333331 0.68266,-2.773332 0.98133,-5.759998 0.0853,-1.194666 0.768,-1.877332 0.72533,-0.682667 1.87733,-0.682667 h 8.36267 q 0,6.229331 -1.664,11.647995 -1.664,5.375998 -4.736,9.855996 l 13.05599,13.738661 h -13.05599 q -0.98133,0 -1.74933,-0.08533 -0.768,-0.128 -1.45067,-0.384 -0.64,-0.256 -1.23733,-0.725333 -0.59734,-0.469333 -1.28,-1.194666 l -2.688,-2.815999 q -4.05333,2.815999 -8.87466,4.351998 -4.77867,1.536 -10.19733,1.536 -3.712,0 -7.296,-1.28 -3.54133,-1.279999 -6.31466,-3.626665 -2.77334,-2.389332 -4.48,-5.759998 -1.70667,-3.370665 -1.70667,-7.551996 0,-2.815999 0.85334,-5.333331 0.89599,-2.517333 2.47466,-4.650665 1.57867,-2.175999 3.75467,-3.925332 2.21866,-1.791999 4.82133,-3.114665 -2.00534,-3.114666 -2.90133,-6.101331 -0.896,-2.986665 -0.896,-5.802664 0,-3.327999 1.19466,-6.271998 1.23733,-2.986665 3.54133,-5.205331 2.34667,-2.261332 5.71733,-3.583998 3.41334,-1.322666 7.808,-1.322666 z m -12.88533,44.245314 q 0,2.048 0.59734,3.711999 0.64,1.663999 1.792,2.858665 1.152,1.194666 2.73066,1.877333 1.62133,0.64 3.584,0.64 2.85867,0 5.29066,-0.725333 2.47467,-0.768 4.608,-2.133333 l -14.29333,-15.14666 q -2.34666,1.919999 -3.32799,4.181331 -0.98134,2.261333 -0.98134,4.735998 z m 109.61065,2.517333 q 0.512,0 1.024,0.213333 0.512,0.170667 0.98133,0.64 l 5.71734,6.015997 q -3.75467,4.906665 -9.42933,7.423997 -5.632,2.474666 -13.35466,2.474666 -7.08267,0 -12.71467,-2.389333 -5.58933,-2.431999 -9.51466,-6.655997 -3.88266,-4.266665 -5.97333,-10.069329 -2.09067,-5.845331 -2.09067,-12.671995 0,-6.954663 2.38934,-12.757328 2.38933,-5.845331 6.65599,-10.069329 4.30934,-4.223998 10.28267,-6.570664 5.97333,-2.346665 13.18399,-2.346665 3.49867,0 6.57066,0.639999 3.11467,0.597333 5.80267,1.706666 2.688,1.066666 4.94933,2.602666 2.26133,1.493333 4.01067,3.327998 l -4.864,6.527998 q -0.46934,0.597333 -1.10934,1.109333 -0.64,0.469333 -1.79199,0.469333 -0.768,0 -1.45067,-0.341333 -0.68267,-0.341334 -1.45067,-0.810667 -0.768,-0.512 -1.70666,-1.066666 -0.896,-0.597333 -2.176,-1.066666 -1.23733,-0.512 -2.944,-0.853333 -1.664,-0.341333 -3.92533,-0.341333 -3.92533,0 -7.168,1.407999 -3.24266,1.365333 -5.58933,3.967998 -2.304,2.559999 -3.62667,6.229331 -1.27999,3.669332 -1.27999,8.234663 0,4.778665 1.27999,8.490663 1.32267,3.711999 3.54134,6.271998 2.26133,2.517332 5.24799,3.839998 2.98667,1.322666 6.4,1.322666 1.96267,0 3.584,-0.170666 1.62133,-0.213334 2.98667,-0.682667 1.40799,-0.469333 2.64533,-1.194666 1.28,-0.768 2.56,-1.877332 0.512,-0.426667 1.10933,-0.682667 0.59733,-0.298666 1.23733,-0.298666 z M 398.5874,88.09819 V 24.226217 h 13.22666 V 47.73554 q 2.38933,-2.047999 5.16266,-3.285331 2.816,-1.28 6.69867,-1.28 3.62666,0 6.39999,1.28 2.816,1.237332 4.736,3.498665 1.92,2.218665 2.90133,5.333331 0.98134,3.071999 0.98134,6.698664 V 88.09819 H 425.46739 V 59.980869 q 0,-3.242666 -1.49334,-5.034665 -1.49333,-1.834666 -4.39466,-1.834666 -2.176,0 -4.096,0.938667 -1.92,0.938666 -3.66933,2.517332 V 88.09819 Z M 461.73404,43.852875 V 88.09819 H 448.50738 V 43.852875 Z m 1.536,-12.117328 q 0,1.578666 -0.64,2.986666 -0.64,1.365332 -1.74933,2.431999 -1.10933,1.023999 -2.60267,1.663999 -1.45066,0.597333 -3.11466,0.597333 -1.62133,0 -3.02933,-0.597333 -1.408,-0.64 -2.51734,-1.663999 -1.06666,-1.066667 -1.70666,-2.431999 -0.59734,-1.408 -0.59734,-2.986666 0,-1.621332 0.59734,-3.029332 0.64,-1.407999 1.70666,-2.474666 1.10934,-1.066666 2.51734,-1.663999 1.408,-0.597333 3.02933,-0.597333 1.664,0 3.11466,0.597333 1.49334,0.597333 2.60267,1.663999 1.10933,1.066667 1.74933,2.474666 0.64,1.408 0.64,3.029332 z m 41.0453,22.613324 q -0.59733,0.725333 -1.152,1.152 -0.55466,0.426666 -1.57866,0.426666 -0.98133,0 -1.792,-0.469333 -0.768,-0.469333 -1.74933,-1.024 -0.98134,-0.597333 -2.304,-1.066666 -1.32267,-0.469333 -3.28533,-0.469333 -2.432,0 -4.224,0.896 -1.74933,0.895999 -2.90133,2.559999 -1.152,1.663999 -1.70667,4.095998 -0.55467,2.389332 -0.55467,5.418664 0,6.357331 2.432,9.770663 2.47467,3.413332 6.784,3.413332 2.304,0 3.62666,-0.554667 1.36534,-0.597333 2.304,-1.279999 0.93867,-0.725333 1.70667,-1.322666 0.81067,-0.597333 2.00533,-0.597333 1.57867,0 2.38933,1.151999 l 3.84,4.735998 q -2.048,2.346666 -4.30933,3.839999 -2.26133,1.450666 -4.65066,2.303999 -2.34667,0.810666 -4.736,1.109332 -2.38933,0.341334 -4.65067,0.341334 -4.05333,0 -7.76533,-1.536 -3.66933,-1.535999 -6.48533,-4.437331 -2.77333,-2.943999 -4.43733,-7.210664 -1.62133,-4.266665 -1.62133,-9.727996 0,-4.778664 1.408,-8.917329 1.45066,-4.181332 4.224,-7.210664 2.816,-3.071999 6.91199,-4.821331 4.13867,-1.749333 9.55733,-1.749333 5.20533,0 9.13067,1.663999 3.92533,1.664 7.08266,4.863998 z m 22.784,-30.122654 v 35.797318 h 1.96266 q 1.23734,0 1.87734,-0.341333 0.68266,-0.341333 1.27999,-1.237333 L 540.582,45.986208 q 0.72533,-1.109333 1.70666,-1.621333 1.024,-0.512 2.56,-0.512 h 12.11733 l -11.43466,15.743994 q -0.81067,1.109333 -1.792,1.962666 -0.93867,0.853333 -2.048,1.535999 1.92,1.450666 3.328,3.839998 l 12.45866,21.162658 h -11.94666 q -1.49333,0 -2.60267,-0.469333 -1.06666,-0.512 -1.74933,-1.749332 l -8.36266,-15.658661 q -0.59734,-1.066666 -1.23733,-1.365332 -0.64,-0.341334 -1.92,-0.341334 h -2.56 V 88.09819 H 513.87268 V 24.226217 Z m 52.30928,18.943992 q 4.39466,0 8.02133,1.365333 3.66933,1.365333 6.27199,3.967998 2.64534,2.602666 4.096,6.399997 1.49334,3.754666 1.49334,8.53333 0,1.493333 -0.128,2.431999 -0.128,0.938667 -0.46934,1.493333 -0.34133,0.554666 -0.93866,0.768 -0.55467,0.213333 -1.45067,0.213333 h -25.51466 q 0.64,5.546664 3.37067,8.063997 2.73067,2.474665 7.04,2.474665 2.304,0 3.96799,-0.554666 1.664,-0.554667 2.944,-1.237333 1.32267,-0.682666 2.38934,-1.237333 1.10933,-0.554666 2.304,-0.554666 1.57866,0 2.38933,1.151999 l 3.84,4.735998 q -2.048,2.346666 -4.43734,3.839999 -2.34666,1.450666 -4.86399,2.303999 -2.47467,0.810666 -4.992,1.109332 -2.47467,0.341334 -4.736,0.341334 -4.65066,0 -8.74666,-1.493333 -4.05333,-1.535999 -7.12533,-4.522665 -3.02934,-2.986665 -4.82133,-7.423997 -1.74934,-4.437331 -1.74934,-10.325329 0,-4.437331 1.49334,-8.40533 1.536,-3.967998 4.35199,-6.954663 2.85867,-2.986666 6.86933,-4.735998 4.05334,-1.749333 9.13067,-1.749333 z m 0.256,9.130663 q -3.79733,0 -5.93067,2.175999 -2.13333,2.133332 -2.816,6.186664 h 16.512 q 0,-1.578666 -0.42667,-3.071999 -0.384,-1.493332 -1.32267,-2.645332 -0.89599,-1.194666 -2.38933,-1.919999 -1.49333,-0.725333 -3.62666,-0.725333 z M 606.88598,88.09819 V 43.852875 h 8.192 q 1.23733,0 2.048,0.554667 0.85333,0.554666 1.19466,1.663999 l 0.768,2.559999 q 1.28,-1.194666 2.64534,-2.218666 1.36533,-1.023999 2.90133,-1.706666 1.57866,-0.725333 3.37066,-1.109332 1.83467,-0.426667 3.968,-0.426667 3.62667,0 6.4,1.28 2.816,1.237332 4.736,3.498665 1.92,2.218665 2.90133,5.333331 0.98133,3.071999 0.98133,6.698664 V 88.09819 H 633.76597 V 59.980869 q 0,-3.242666 -1.49333,-5.034665 -1.49334,-1.834666 -4.39467,-1.834666 -2.176,0 -4.096,0.938667 -1.91999,0.938666 -3.66933,2.517332 V 88.09819 Z m 76.54394,-34.559985 q -0.512,0.810666 -1.10933,1.151999 -0.55467,0.341333 -1.45067,0.341333 -0.93866,0 -1.87733,-0.383999 -0.93866,-0.426667 -2.048,-0.896 -1.06666,-0.469333 -2.432,-0.853333 -1.36533,-0.426666 -3.11466,-0.426666 -2.51733,0 -3.88267,0.981332 -1.32266,0.938667 -1.32266,2.645333 0,1.237332 0.85333,2.047999 0.896,0.810666 2.34667,1.450666 1.45066,0.597333 3.28533,1.151999 1.83466,0.554667 3.75466,1.237333 1.92,0.682667 3.75467,1.621333 1.83466,0.895999 3.28533,2.261332 1.45067,1.322666 2.304,3.242666 0.896,1.919999 0.896,4.607998 0,3.285332 -1.19467,6.058664 -1.19466,2.773332 -3.584,4.778664 -2.34666,2.005333 -5.84533,3.114666 -3.456,1.109333 -7.97866,1.109333 -2.26133,0 -4.52267,-0.426667 -2.26133,-0.426666 -4.39466,-1.151999 -2.09067,-0.725333 -3.88267,-1.706666 -1.79199,-1.024 -3.07199,-2.175999 l 3.07199,-4.863998 q 0.55467,-0.853333 1.32267,-1.322666 0.768,-0.512 2.00533,-0.512 1.152,0 2.048,0.512 0.93867,0.511999 2.00533,1.109332 1.06667,0.597334 2.47467,1.109333 1.45067,0.512 3.62667,0.512 1.536,0 2.60266,-0.298666 1.06667,-0.341334 1.70667,-0.896 0.64,-0.554667 0.93866,-1.237333 0.29867,-0.682666 0.29867,-1.407999 0,-1.322666 -0.896,-2.175999 -0.896,-0.853333 -2.34667,-1.450666 -1.45066,-0.64 -3.32799,-1.152 -1.83467,-0.554666 -3.75467,-1.237333 -1.92,-0.682666 -3.79733,-1.621332 -1.83467,-0.981333 -3.28533,-2.431999 -1.45067,-1.493333 -2.34667,-3.626666 -0.896,-2.133332 -0.896,-5.162664 0,-2.815999 1.06667,-5.333331 1.10933,-2.559999 3.28533,-4.479998 2.176,-1.92 5.46133,-3.029332 3.28533,-1.152 7.68,-1.152 2.38933,0 4.608,0.426667 2.26133,0.426666 4.22399,1.194666 1.96267,0.767999 3.584,1.834666 1.62134,1.023999 2.85867,2.261332 z"
       id="text3"
       style="font-weight:900;font-size:85.3333px;font-family:Lato;-inkscape-font-specification:'Lato, Heavy';fill:#ffffff;stroke:#000000;stroke-width:12;stroke-linejoin:round;paint-order:stroke fill markers"
       inkscape:label="Text"
       aria-label="Eggs &amp; Chickens" /></g></svg>
