<?xml version="1.0" encoding="UTF-8" standalone="no"?>
<!-- Created with Inkscape (http://www.inkscape.org/) -->

<svg
   width="1200"
   height="600"
   viewBox="0 0 1200 599.99998"
   version="1.1"
   id="svg395"
   inkscape:version="1.4.2 (ebf0e940d0, 2025-05-08)"
   sodipodi:docname="splash_2.svg"
   xml:space="preserve"
   xmlns:inkscape="http://www.inkscape.org/namespaces/inkscape"
   xmlns:sodipodi="http://sodipodi.sourceforge.net/DTD/sodipodi-0.dtd"
   xmlns="http://www.w3.org/2000/svg"
   xmlns:svg="http://www.w3.org/2000/svg"><sodipodi:namedview
     id="namedview397"
     pagecolor="#505050"
     bordercolor="#eeeeee"
     borderopacity="1"
     inkscape:showpageshadow="0"
     inkscape:pageopacity="0"
     inkscape:pagecheckerboard="0"
     inkscape:deskcolor="#505050"
     inkscape:document-units="px"
     showgrid="false"
     inkscape:zoom="0.60603151"
     inkscape:cx="580.00285"
     inkscape:cy="289.5889"
     inkscape:window-width="1536"
     inkscape:window-height="932"
     inkscape:window-x="0"
     inkscape:window-y="0"
     inkscape:window-maximized="1"
     inkscape:current-layer="layer1" /><defs
     id="defs392"><rect
       x="4.9447684"
       y="6.5930247"
       width="825.77631"
       height="271.96225"
       id="rect1" /></defs><g
     inkscape:label="Layer 1"
     inkscape:groupmode="layer"
     id="layer1"><rect
       style="fill:#000000;fill-opacity:1;stroke:none;stroke-width:151.181;stroke-linecap:round;stroke-linejoin:round;stroke-dasharray:none"
       id="rect568-2-1"
       width="1200"
       height="600"
       x="9.9999997e-06"
       y="-1.4741211e-05" /><path
       style="fill:#bb1d3b;fill-opacity:1;stroke:none;stroke-width:75.5904;stroke-linecap:round;stroke-linejoin:round;stroke-dasharray:none"
       d="m 1e-5,150 v 75 l 75,-75 z"
       id="path2070-8" /><path
       style="fill:#bb1d3b;fill-opacity:1;stroke:none;stroke-width:75.5904;stroke-linecap:round;stroke-linejoin:round;stroke-dasharray:none"
       d="m 1e-5,225 v 75 l 75,-75 z"
       id="path2070-8-6" /><path
       style="fill:#bb1d3b;fill-opacity:1;stroke:none;stroke-width:75.5904;stroke-linecap:round;stroke-linejoin:round;stroke-dasharray:none"
       d="m 300.00001,225 v -75 l -75,75 z"
       id="path2070-38" /><path
       style="fill:#bb1d3b;fill-opacity:1;stroke:none;stroke-width:75.5904;stroke-linecap:round;stroke-linejoin:round;stroke-dasharray:none"
       d="m 300.00001,300 v -74.99999 l -75,74.99999 z"
       id="path2070-2-04" /><path
       style="fill:#bb1d3b;fill-opacity:1;stroke:none;stroke-width:75.5904;stroke-linecap:round;stroke-linejoin:round;stroke-dasharray:none"
       d="m 1.2e-5,300 v 75 L 75.00001,300 Z"
       id="path2070-8-3" /><path
       style="fill:#bb1d3b;fill-opacity:1;stroke:none;stroke-width:75.5904;stroke-linecap:round;stroke-linejoin:round;stroke-dasharray:none"
       d="m 1.2e-5,375 v 75 L 75.00001,375 Z"
       id="path2070-8-6-9" /><path
       style="fill:#bb1d3b;fill-opacity:1;stroke:none;stroke-width:75.5904;stroke-linecap:round;stroke-linejoin:round;stroke-dasharray:none"
       d="m 300.00001,375 v -75 l -75,75 z"
       id="path2070-38-9" /><path
       style="fill:#bb1d3b;fill-opacity:1;stroke:none;stroke-width:75.5904;stroke-linecap:round;stroke-linejoin:round;stroke-dasharray:none"
       d="m 300.00001,450 v -75 l -75,75 z"
       id="path2070-2-04-0" /><path
       style="fill:#bb1d3b;fill-opacity:1;stroke-width:75.5906;stroke-linecap:round;stroke-linejoin:round"
       d="m 75.00001,225 75,-75 h 75 l -75,75 z"
       id="path10892" /><path
       style="fill:#bb1d3b;fill-opacity:1;stroke-width:75.5906;stroke-linecap:round;stroke-linejoin:round"
       d="m 75.00001,300 75,-75 h 75 l -75,75 z"
       id="path10892-6" /><path
       style="fill:#bb1d3b;fill-opacity:1;stroke-width:75.5906;stroke-linecap:round;stroke-linejoin:round"
       d="m 75.00001,375 75,-75 h 75 l -75,75 z"
       id="path10892-4" /><path
       style="fill:#bb1d3b;fill-opacity:1;stroke-width:75.5906;stroke-linecap:round;stroke-linejoin:round"
       d="m 75.00001,450 75,-75 h 75 l -75,75 z"
       id="path10892-6-1" /><path
       style="fill:#bb1d3b;fill-opacity:1;stroke:none;stroke-width:75.5904;stroke-linecap:round;stroke-linejoin:round;stroke-dasharray:none"
       d="m 600.00001,149.99999 v 75 l -75,-75 z"
       id="path2070-8-0" /><path
       style="fill:#bb1d3b;fill-opacity:1;stroke:none;stroke-width:75.5904;stroke-linecap:round;stroke-linejoin:round;stroke-dasharray:none"
       d="m 600.00001,224.99999 v 75 l -75,-75 z"
       id="path2070-8-6-2" /><path
       style="fill:#bb1d3b;fill-opacity:1;stroke:none;stroke-width:75.5904;stroke-linecap:round;stroke-linejoin:round;stroke-dasharray:none"
       d="m 300.00001,224.99999 v -75 l 75,75 z"
       id="path2070-38-3" /><path
       style="fill:#bb1d3b;fill-opacity:1;stroke:none;stroke-width:75.5904;stroke-linecap:round;stroke-linejoin:round;stroke-dasharray:none"
       d="M 300.00001,299.99999 V 225 l 75,74.99999 z"
       id="path2070-2-04-7" /><path
       style="fill:#bb1d3b;fill-opacity:1;stroke:none;stroke-width:75.5904;stroke-linecap:round;stroke-linejoin:round;stroke-dasharray:none"
       d="m 600.00001,299.99999 v 75 l -75,-75 z"
       id="path2070-8-3-5" /><path
       style="fill:#bb1d3b;fill-opacity:1;stroke:none;stroke-width:75.5904;stroke-linecap:round;stroke-linejoin:round;stroke-dasharray:none"
       d="m 600.00001,374.99999 v 75 l -75,-75 z"
       id="path2070-8-6-9-9" /><path
       style="fill:#bb1d3b;fill-opacity:1;stroke:none;stroke-width:75.5904;stroke-linecap:round;stroke-linejoin:round;stroke-dasharray:none"
       d="m 300.00001,374.99999 v -75 l 75,75 z"
       id="path2070-38-9-2" /><path
       style="fill:#bb1d3b;fill-opacity:1;stroke:none;stroke-width:75.5904;stroke-linecap:round;stroke-linejoin:round;stroke-dasharray:none"
       d="m 300.00001,449.99999 v -75 l 75,75 z"
       id="path2070-2-04-0-2" /><path
       style="fill:#bb1d3b;fill-opacity:1;stroke-width:75.5906;stroke-linecap:round;stroke-linejoin:round"
       d="m 525.00001,224.99999 -75,-75 h -75 l 75,75 z"
       id="path10892-8" /><path
       style="fill:#bb1d3b;fill-opacity:1;stroke-width:75.5906;stroke-linecap:round;stroke-linejoin:round"
       d="m 525.00001,299.99999 -75,-75 h -75 l 75,75 z"
       id="path10892-6-9" /><path
       style="fill:#bb1d3b;fill-opacity:1;stroke-width:75.5906;stroke-linecap:round;stroke-linejoin:round"
       d="m 525.00001,374.99999 -75,-75 h -75 l 75,75 z"
       id="path10892-4-7" /><path
       style="fill:#bb1d3b;fill-opacity:1;stroke-width:75.5906;stroke-linecap:round;stroke-linejoin:round"
       d="m 525.00001,449.99999 -75,-75 h -75 l 75,75 z"
       id="path10892-6-1-3" /><path
       style="fill:#bb1d3b;fill-opacity:1;stroke:none;stroke-width:75.5904;stroke-linecap:round;stroke-linejoin:round;stroke-dasharray:none"
       d="m 600,149.99999 v 75 l 75,-75 z"
       id="path2070-8-0-0" /><path
       style="fill:#bb1d3b;fill-opacity:1;stroke:none;stroke-width:75.5904;stroke-linecap:round;stroke-linejoin:round;stroke-dasharray:none"
       d="m 600,224.99999 v 75 l 75,-75 z"
       id="path2070-8-6-2-6" /><path
       style="fill:#bb1d3b;fill-opacity:1;stroke:none;stroke-width:75.5904;stroke-linecap:round;stroke-linejoin:round;stroke-dasharray:none"
       d="m 900,224.99999 v -75 l -75,75 z"
       id="path2070-38-3-3" /><path
       style="fill:#bb1d3b;fill-opacity:1;stroke:none;stroke-width:75.5904;stroke-linecap:round;stroke-linejoin:round;stroke-dasharray:none"
       d="M 900,299.99999 V 225 l -75,74.99999 z"
       id="path2070-2-04-7-2" /><path
       style="fill:#bb1d3b;fill-opacity:1;stroke:none;stroke-width:75.5904;stroke-linecap:round;stroke-linejoin:round;stroke-dasharray:none"
       d="m 600,299.99999 v 75 l 75,-75 z"
       id="path2070-8-3-5-0" /><path
       style="fill:#bb1d3b;fill-opacity:1;stroke:none;stroke-width:75.5904;stroke-linecap:round;stroke-linejoin:round;stroke-dasharray:none"
       d="m 600,374.99999 v 75 l 75,-75 z"
       id="path2070-8-6-9-9-6" /><path
       style="fill:#bb1d3b;fill-opacity:1;stroke:none;stroke-width:75.5904;stroke-linecap:round;stroke-linejoin:round;stroke-dasharray:none"
       d="m 900,374.99999 v -75 l -75,75 z"
       id="path2070-38-9-2-1" /><path
       style="fill:#bb1d3b;fill-opacity:1;stroke:none;stroke-width:75.5904;stroke-linecap:round;stroke-linejoin:round;stroke-dasharray:none"
       d="m 900,449.99999 v -75 l -75,75 z"
       id="path2070-2-04-0-2-5" /><path
       style="fill:#bb1d3b;fill-opacity:1;stroke-width:75.5906;stroke-linecap:round;stroke-linejoin:round"
       d="m 675,224.99999 75,-75 h 75 l -75,75 z"
       id="path10892-8-5" /><path
       style="fill:#bb1d3b;fill-opacity:1;stroke-width:75.5906;stroke-linecap:round;stroke-linejoin:round"
       d="m 675,299.99999 75,-75 h 75 l -75,75 z"
       id="path10892-6-9-4" /><path
       style="fill:#bb1d3b;fill-opacity:1;stroke-width:75.5906;stroke-linecap:round;stroke-linejoin:round"
       d="m 675,374.99999 75,-75 h 75 l -75,75 z"
       id="path10892-4-7-7" /><path
       style="fill:#bb1d3b;fill-opacity:1;stroke-width:75.5906;stroke-linecap:round;stroke-linejoin:round"
       d="m 675,449.99999 75,-75 h 75 l -75,75 z"
       id="path10892-6-1-3-6" /><path
       style="fill:#bb1d3b;fill-opacity:1;stroke:none;stroke-width:75.5904;stroke-linecap:round;stroke-linejoin:round;stroke-dasharray:none"
       d="m 1200,149.99999 v 75 l -75,-75 z"
       id="path2070-8-0-9" /><path
       style="fill:#bb1d3b;fill-opacity:1;stroke:none;stroke-width:75.5904;stroke-linecap:round;stroke-linejoin:round;stroke-dasharray:none"
       d="m 1200,224.99999 v 75 l -75,-75 z"
       id="path2070-8-6-2-3" /><path
       style="fill:#bb1d3b;fill-opacity:1;stroke:none;stroke-width:75.5904;stroke-linecap:round;stroke-linejoin:round;stroke-dasharray:none"
       d="m 900,224.99999 v -75 l 75,75 z"
       id="path2070-38-3-7" /><path
       style="fill:#bb1d3b;fill-opacity:1;stroke:none;stroke-width:75.5904;stroke-linecap:round;stroke-linejoin:round;stroke-dasharray:none"
       d="M 900,299.99999 V 225 l 75,74.99999 z"
       id="path2070-2-04-7-4" /><path
       style="fill:#bb1d3b;fill-opacity:1;stroke:none;stroke-width:75.5904;stroke-linecap:round;stroke-linejoin:round;stroke-dasharray:none"
       d="m 1200,299.99999 v 75 l -75,-75 z"
       id="path2070-8-3-5-5" /><path
       style="fill:#bb1d3b;fill-opacity:1;stroke:none;stroke-width:75.5904;stroke-linecap:round;stroke-linejoin:round;stroke-dasharray:none"
       d="m 1200,374.99999 v 75 l -75,-75 z"
       id="path2070-8-6-9-9-2" /><path
       style="fill:#bb1d3b;fill-opacity:1;stroke:none;stroke-width:75.5904;stroke-linecap:round;stroke-linejoin:round;stroke-dasharray:none"
       d="m 900,374.99999 v -75 l 75,75 z"
       id="path2070-38-9-2-5" /><path
       style="fill:#bb1d3b;fill-opacity:1;stroke:none;stroke-width:75.5904;stroke-linecap:round;stroke-linejoin:round;stroke-dasharray:none"
       d="m 900,449.99999 v -75 l 75,75 z"
       id="path2070-2-04-0-2-4" /><path
       style="fill:#bb1d3b;fill-opacity:1;stroke-width:75.5906;stroke-linecap:round;stroke-linejoin:round"
       d="m 1125,224.99999 -75,-75 h -75 l 75,75 z"
       id="path10892-8-7" /><path
       style="fill:#bb1d3b;fill-opacity:1;stroke-width:75.5906;stroke-linecap:round;stroke-linejoin:round"
       d="m 1125,299.99999 -75,-75 h -75 l 75,75 z"
       id="path10892-6-9-44" /><path
       style="fill:#bb1d3b;fill-opacity:1;stroke-width:75.5906;stroke-linecap:round;stroke-linejoin:round"
       d="m 1125,374.99999 -75,-75 h -75 l 75,75 z"
       id="path10892-4-7-3" /><path
       style="fill:#bb1d3b;fill-opacity:1;stroke-width:75.5906;stroke-linecap:round;stroke-linejoin:round"
       d="m 1125,449.99999 -75,-75 h -75 l 75,75 z"
       id="path10892-6-1-3-0" /><path
       style="fill:#bb1d3b;fill-opacity:1;stroke:none;stroke-width:75.5904;stroke-linecap:round;stroke-linejoin:round;stroke-dasharray:none"
       d="M 9.9999997e-6,149.99999 V 74.999985 L 75.00001,149.99999 Z"
       id="path2070-8-68" /><path
       style="fill:#bb1d3b;fill-opacity:1;stroke:none;stroke-width:75.5904;stroke-linecap:round;stroke-linejoin:round;stroke-dasharray:none"
       d="M 9.9999997e-6,74.999985 V -1.4741211e-5 L 75.00001,74.999985 Z"
       id="path2070-8-6-8" /><path
       style="fill:#bb1d3b;fill-opacity:1;stroke:none;stroke-width:75.5904;stroke-linecap:round;stroke-linejoin:round;stroke-dasharray:none"
       d="m 300.00002,74.999985 v 75.000005 l -75,-75.000005 z"
       id="path2070-38-4" /><path
       style="fill:#bb1d3b;fill-opacity:1;stroke:none;stroke-width:75.5904;stroke-linecap:round;stroke-linejoin:round;stroke-dasharray:none"
       d="M 300.00002,-1.4741211e-5 V 74.999975 l -75,-74.999989741211 z"
       id="path2070-2-04-3" /><path
       style="fill:#bb1d3b;fill-opacity:1;stroke-width:75.5906;stroke-linecap:round;stroke-linejoin:round"
       d="m 75.00001,74.999985 75,75.000005 h 75.00001 L 150.00001,74.999985 Z"
       id="path10892-68" /><path
       style="fill:#bb1d3b;fill-opacity:1;stroke-width:75.5906;stroke-linecap:round;stroke-linejoin:round"
       d="m 75.00001,-1.4741211e-5 75,74.999999741211 h 75.00001 L 150.00001,-1.4741211e-5 Z"
       id="path10892-6-92" /><path
       style="fill:#bb1d3b;fill-opacity:1;stroke:none;stroke-width:75.5904;stroke-linecap:round;stroke-linejoin:round;stroke-dasharray:none"
       d="M 600.00002,150 V 74.999995 l -75,75.000005 z"
       id="path2070-8-0-95" /><path
       style="fill:#bb1d3b;fill-opacity:1;stroke:none;stroke-width:75.5904;stroke-linecap:round;stroke-linejoin:round;stroke-dasharray:none"
       d="M 600.00002,74.999995 V -4.741211e-6 l -75,74.999999741211 z"
       id="path2070-8-6-2-0" /><path
       style="fill:#bb1d3b;fill-opacity:1;stroke:none;stroke-width:75.5904;stroke-linecap:round;stroke-linejoin:round;stroke-dasharray:none"
       d="M 300.00002,74.999995 V 150 l 75,-75.000005 z"
       id="path2070-38-3-4" /><path
       style="fill:#bb1d3b;fill-opacity:1;stroke:none;stroke-width:75.5904;stroke-linecap:round;stroke-linejoin:round;stroke-dasharray:none"
       d="M 300.00002,-4.741211e-6 V 74.999985 l 75,-74.999989741211 z"
       id="path2070-2-04-7-8" /><path
       style="fill:#bb1d3b;fill-opacity:1;stroke-width:75.5906;stroke-linecap:round;stroke-linejoin:round"
       d="m 525.00002,74.999995 -75,75.000005 h -75 l 75,-75.000005 z"
       id="path10892-8-72" /><path
       style="fill:#bb1d3b;fill-opacity:1;stroke-width:75.5906;stroke-linecap:round;stroke-linejoin:round"
       d="m 525.00002,-4.741211e-6 -75,74.999999741211 h -75 l 75,-74.999999741211 z"
       id="path10892-6-9-2" /><path
       style="fill:#bb1d3b;fill-opacity:1;stroke:none;stroke-width:75.5904;stroke-linecap:round;stroke-linejoin:round;stroke-dasharray:none"
       d="M 600.00001,150 V 74.999995 l 75,75.000005 z"
       id="path2070-8-0-0-6" /><path
       style="fill:#bb1d3b;fill-opacity:1;stroke:none;stroke-width:75.5904;stroke-linecap:round;stroke-linejoin:round;stroke-dasharray:none"
       d="M 600.00001,74.999995 V -4.741211e-6 l 75,74.999999741211 z"
       id="path2070-8-6-2-6-1" /><path
       style="fill:#bb1d3b;fill-opacity:1;stroke:none;stroke-width:75.5904;stroke-linecap:round;stroke-linejoin:round;stroke-dasharray:none"
       d="M 900.00001,74.999995 V 150 l -75,-75.000005 z"
       id="path2070-38-3-3-5" /><path
       style="fill:#bb1d3b;fill-opacity:1;stroke:none;stroke-width:75.5904;stroke-linecap:round;stroke-linejoin:round;stroke-dasharray:none"
       d="M 900.00001,-4.741211e-6 V 74.999985 l -75,-74.999989741211 z"
       id="path2070-2-04-7-2-9" /><path
       style="fill:#bb1d3b;fill-opacity:1;stroke-width:75.5906;stroke-linecap:round;stroke-linejoin:round"
       d="m 675.00001,74.999995 75,75.000005 h 75 l -75,-75.000005 z"
       id="path10892-8-5-1" /><path
       style="fill:#bb1d3b;fill-opacity:1;stroke-width:75.5906;stroke-linecap:round;stroke-linejoin:round"
       d="m 675.00001,-4.741211e-6 75,74.999999741211 h 75 l -75,-74.999999741211 z"
       id="path10892-6-9-4-7" /><path
       style="fill:#bb1d3b;fill-opacity:1;stroke:none;stroke-width:75.5904;stroke-linecap:round;stroke-linejoin:round;stroke-dasharray:none"
       d="M 1200,150 V 74.999995 L 1125,150 Z"
       id="path2070-8-0-9-5" /><path
       style="fill:#bb1d3b;fill-opacity:1;stroke:none;stroke-width:75.5904;stroke-linecap:round;stroke-linejoin:round;stroke-dasharray:none"
       d="M 1200,74.999995 V -4.741211e-6 L 1125,74.999995 Z"
       id="path2070-8-6-2-3-9" /><path
       style="fill:#bb1d3b;fill-opacity:1;stroke:none;stroke-width:75.5904;stroke-linecap:round;stroke-linejoin:round;stroke-dasharray:none"
       d="M 900.00001,74.999995 V 150 l 75,-75.000005 z"
       id="path2070-38-3-7-7" /><path
       style="fill:#bb1d3b;fill-opacity:1;stroke:none;stroke-width:75.5904;stroke-linecap:round;stroke-linejoin:round;stroke-dasharray:none"
       d="M 900.00001,-4.741211e-6 V 74.999985 l 75,-74.999989741211 z"
       id="path2070-2-04-7-4-7" /><path
       style="fill:#bb1d3b;fill-opacity:1;stroke-width:75.5906;stroke-linecap:round;stroke-linejoin:round"
       d="M 1125,74.999995 1050,150 H 975.00001 L 1050,74.999995 Z"
       id="path10892-8-7-5" /><path
       style="fill:#bb1d3b;fill-opacity:1;stroke-width:75.5906;stroke-linecap:round;stroke-linejoin:round"
       d="M 1125,-4.741211e-6 1050,74.999995 H 975.00001 L 1050,-4.741211e-6 Z"
       id="path10892-6-9-44-6" /><path
       style="fill:#bb1d3b;fill-opacity:1;stroke:none;stroke-width:75.5904;stroke-linecap:round;stroke-linejoin:round;stroke-dasharray:none"
       d="m 0,600 v -75 l 75,75 z"
       id="path2070-8-3-8" /><path
       style="fill:#bb1d3b;fill-opacity:1;stroke:none;stroke-width:75.5904;stroke-linecap:round;stroke-linejoin:round;stroke-dasharray:none"
       d="m 0,525 v -75 l 75,75 z"
       id="path2070-8-6-9-5" /><path
       style="fill:#bb1d3b;fill-opacity:1;stroke:none;stroke-width:75.5904;stroke-linecap:round;stroke-linejoin:round;stroke-dasharray:none"
       d="m 300.00001,525 v 75 l -75,-75 z"
       id="path2070-38-9-0" /><path
       style="fill:#bb1d3b;fill-opacity:1;stroke:none;stroke-width:75.5904;stroke-linecap:round;stroke-linejoin:round;stroke-dasharray:none"
       d="m 300.00001,450 v 75 l -75,-75 z"
       id="path2070-2-04-0-9" /><path
       style="fill:#bb1d3b;fill-opacity:1;stroke-width:75.5906;stroke-linecap:round;stroke-linejoin:round"
       d="m 75,525 75,75 h 75.00001 L 150,525 Z"
       id="path10892-4-5" /><path
       style="fill:#bb1d3b;fill-opacity:1;stroke-width:75.5906;stroke-linecap:round;stroke-linejoin:round"
       d="m 75,450 75,75 h 75.00001 L 150,450 Z"
       id="path10892-6-1-61" /><path
       style="fill:#bb1d3b;fill-opacity:1;stroke:none;stroke-width:75.5904;stroke-linecap:round;stroke-linejoin:round;stroke-dasharray:none"
       d="m 600.00001,600.00001 v -75 l -75,75 z"
       id="path2070-8-3-5-03" /><path
       style="fill:#bb1d3b;fill-opacity:1;stroke:none;stroke-width:75.5904;stroke-linecap:round;stroke-linejoin:round;stroke-dasharray:none"
       d="m 600.00001,525.00001 v -75 l -75,75 z"
       id="path2070-8-6-9-9-0" /><path
       style="fill:#bb1d3b;fill-opacity:1;stroke:none;stroke-width:75.5904;stroke-linecap:round;stroke-linejoin:round;stroke-dasharray:none"
       d="m 300.00001,525.00001 v 75 l 75,-75 z"
       id="path2070-38-9-2-4" /><path
       style="fill:#bb1d3b;fill-opacity:1;stroke:none;stroke-width:75.5904;stroke-linecap:round;stroke-linejoin:round;stroke-dasharray:none"
       d="m 300.00001,450.00001 v 75 l 75,-75 z"
       id="path2070-2-04-0-2-44" /><path
       style="fill:#bb1d3b;fill-opacity:1;stroke-width:75.5906;stroke-linecap:round;stroke-linejoin:round"
       d="m 525.00001,525.00001 -75,75 h -75 l 75,-75 z"
       id="path10892-4-7-63" /><path
       style="fill:#bb1d3b;fill-opacity:1;stroke-width:75.5906;stroke-linecap:round;stroke-linejoin:round"
       d="m 525.00001,450.00001 -75,75 h -75 l 75,-75 z"
       id="path10892-6-1-3-17" /><path
       style="fill:#bb1d3b;fill-opacity:1;stroke:none;stroke-width:75.5904;stroke-linecap:round;stroke-linejoin:round;stroke-dasharray:none"
       d="m 600,600.00001 v -75 l 75,75 z"
       id="path2070-8-3-5-0-7" /><path
       style="fill:#bb1d3b;fill-opacity:1;stroke:none;stroke-width:75.5904;stroke-linecap:round;stroke-linejoin:round;stroke-dasharray:none"
       d="m 600,525.00001 v -75 l 75,75 z"
       id="path2070-8-6-9-9-6-8" /><path
       style="fill:#bb1d3b;fill-opacity:1;stroke:none;stroke-width:75.5904;stroke-linecap:round;stroke-linejoin:round;stroke-dasharray:none"
       d="m 900,525.00001 v 75 l -75,-75 z"
       id="path2070-38-9-2-1-5" /><path
       style="fill:#bb1d3b;fill-opacity:1;stroke:none;stroke-width:75.5904;stroke-linecap:round;stroke-linejoin:round;stroke-dasharray:none"
       d="m 900,450.00001 v 75 l -75,-75 z"
       id="path2070-2-04-0-2-5-7" /><path
       style="fill:#bb1d3b;fill-opacity:1;stroke-width:75.5906;stroke-linecap:round;stroke-linejoin:round"
       d="m 675,525.00001 75,75 h 75 l -75,-75 z"
       id="path10892-4-7-7-8" /><path
       style="fill:#bb1d3b;fill-opacity:1;stroke-width:75.5906;stroke-linecap:round;stroke-linejoin:round"
       d="m 675,450.00001 75,75 h 75 l -75,-75 z"
       id="path10892-6-1-3-6-5" /><path
       style="fill:#bb1d3b;fill-opacity:1;stroke:none;stroke-width:75.5904;stroke-linecap:round;stroke-linejoin:round;stroke-dasharray:none"
       d="m 1200,600.00001 v -75 l -75,75 z"
       id="path2070-8-3-5-5-8" /><path
       style="fill:#bb1d3b;fill-opacity:1;stroke:none;stroke-width:75.5904;stroke-linecap:round;stroke-linejoin:round;stroke-dasharray:none"
       d="m 1200,525.00001 v -75 l -75,75 z"
       id="path2070-8-6-9-9-2-3" /><path
       style="fill:#bb1d3b;fill-opacity:1;stroke:none;stroke-width:75.5904;stroke-linecap:round;stroke-linejoin:round;stroke-dasharray:none"
       d="m 900,525.00001 v 75 l 75,-75 z"
       id="path2070-38-9-2-5-1" /><path
       style="fill:#bb1d3b;fill-opacity:1;stroke:none;stroke-width:75.5904;stroke-linecap:round;stroke-linejoin:round;stroke-dasharray:none"
       d="m 900,450.00001 v 75 l 75,-75 z"
       id="path2070-2-04-0-2-4-8" /><path
       style="fill:#bb1d3b;fill-opacity:1;stroke-width:75.5906;stroke-linecap:round;stroke-linejoin:round"
       d="m 1125,525.00001 -75,75 h -75 l 75,-75 z"
       id="path10892-4-7-3-33" /><path
       style="fill:#bb1d3b;fill-opacity:1;stroke-width:75.5906;stroke-linecap:round;stroke-linejoin:round"
       d="m 1125,450.00001 -75,75 h -75 l 75,-75 z"
       id="path10892-6-1-3-0-3" /></g><g
     inkscape:groupmode="layer"
     id="layer2"
     inkscape:label="Layer 2" /></svg>
