<?xml version="1.0" standalone="no"?>
<!DOCTYPE svg PUBLIC "-//W3C//DTD SVG 20010904//EN"
 "http://www.w3.org/TR/2001/REC-SVG-20010904/DTD/svg10.dtd">
<svg version="1.0" xmlns="http://www.w3.org/2000/svg"
 width="1440.000000pt" height="1440.000000pt" viewBox="0 0 1440.000000 1440.000000"
 preserveAspectRatio="xMidYMid meet">
<metadata>
Created by potrace 1.14, written by Peter Selinger 2001-2017
</metadata>
<g transform="translate(0.000000,1440.000000) scale(0.100000,-0.100000)"
fill="#000000" stroke="none">
<path d="M3930 14389 c-1391 -110 -2632 -884 -3343 -2087 -330 -557 -526
-1186 -577 -1851 -14 -185 -14 -6316 0 -6502 80 -1052 519 -1997 1267 -2729
357 -350 693 -586 1145 -804 434 -210 864 -333 1368 -393 147 -17 318 -18
3415 -18 3060 0 3269 1 3405 18 539 66 988 200 1450 432 422 213 743 447 1091
794 347 348 581 669 794 1091 232 462 366 911 432 1450 17 136 18 346 18 3410
0 3606 5 3330 -61 3700 -132 740 -462 1433 -961 2016 -116 136 -356 374 -488
485 -694 582 -1525 919 -2434 989 -164 12 -6362 11 -6521 -1z m-510 -1173
c175 -31 285 -68 455 -152 387 -192 715 -540 970 -1029 30 -57 65 -129 79
-162 13 -32 38 -91 55 -131 100 -239 196 -593 245 -912 37 -235 41 -298 40
-640 -1 -377 -9 -465 -73 -795 -52 -270 -177 -592 -326 -845 -269 -455 -691
-764 -1200 -879 -183 -41 -235 -46 -505 -46 -321 0 -450 19 -698 102 -379 127
-721 392 -956 743 -189 282 -342 686 -405 1070 -42 254 -46 304 -46 655 0 392
12 517 77 840 11 55 24 118 29 140 12 63 95 342 127 430 58 159 85 223 163
380 348 708 879 1151 1479 1234 41 6 86 13 100 15 49 9 306 -3 390 -18z m3612
-4670 c216 -48 393 -169 476 -323 100 -188 77 -479 -51 -647 -60 -78 -177
-174 -269 -219 -48 -23 -87 -45 -88 -50 0 -13 244 -267 255 -264 5 2 29 31 51
64 46 68 92 180 119 292 l18 73 46 -6 c25 -3 125 -14 221 -25 303 -33 385 -44
393 -51 17 -15 -53 -225 -128 -386 -63 -134 -134 -242 -223 -335 -73 -78 -73
-73 8 -112 40 -20 61 -22 198 -22 l152 0 0 -277 0 -276 -27 -6 c-185 -38 -305
-44 -444 -20 -142 25 -263 72 -371 145 -32 22 -62 39 -68 39 -6 0 -36 -17 -68
-39 -106 -72 -213 -114 -372 -148 -121 -25 -459 -25 -580 0 -402 85 -664 298
-725 592 -21 102 -21 250 0 339 48 204 184 361 410 473 44 22 97 46 118 52 20
7 37 16 37 21 0 5 -20 38 -45 73 -54 77 -105 180 -131 262 -26 83 -26 267 0
345 83 245 301 408 602 449 98 14 405 6 486 -13z m3393 -1751 c115 -19 168
-34 284 -79 479 -186 839 -639 896 -1128 32 -267 13 -448 -71 -707 -16 -47
-92 -205 -126 -261 -229 -374 -641 -632 -1080 -676 -38 -4 -68 -4 -68 0 0 13
309 615 331 645 20 27 20 33 10 78 -42 176 -220 349 -407 397 -72 18 -209 21
-286 5 -70 -14 -188 -73 -239 -118 l-42 -37 107 -429 c120 -485 126 -508 123
-512 -6 -5 -118 29 -200 61 -274 109 -511 299 -671 540 -177 268 -245 490
-246 801 0 169 18 289 66 438 114 353 348 639 671 821 90 50 267 123 323 132
l35 6 74 -169 c230 -523 225 -513 255 -513 14 0 28 4 31 10 3 5 13 82 21 170
22 245 83 540 111 540 5 0 49 -7 98 -15z m1368 -1343 c209 -237 346 -465 434
-727 204 -600 131 -1281 -193 -1810 -245 -400 -639 -725 -1074 -885 -106 -40
-377 -106 -490 -119 -109 -14 -391 -14 -500 0 -113 13 -384 79 -490 118 -280
104 -540 271 -757 489 -215 215 -361 435 -472 710 -39 97 -50 131 -90 272 -89
319 -88 745 2 1070 91 323 260 638 460 855 l46 50 1 -116 c1 -415 165 -793
468 -1079 186 -176 380 -292 605 -360 73 -22 142 -45 154 -51 12 -7 33 -9 46
-5 14 3 45 3 70 0 43 -6 46 -9 66 -55 33 -80 69 -78 109 4 l22 47 63 0 c207 1
482 86 702 219 91 54 235 172 314 257 220 235 350 509 391 819 12 92 16 378 5
395 -3 5 0 7 8 4 8 -3 53 -49 100 -102z m-1590 -476 c87 -31 156 -76 211 -138
48 -52 106 -158 106 -191 0 -16 -113 -154 -166 -202 -6 -5 -91 -100 -189 -210
-221 -248 -213 -240 -220 -233 -5 4 -130 491 -201 782 -28 116 -28 116 64 161
89 44 130 54 232 54 75 0 109 -4 163 -23z"/>
<path d="M1685 10696 c-95 -25 -176 -83 -249 -179 -22 -28 -29 -51 -33 -95 -2
-31 -8 -70 -13 -87 -15 -46 -22 -460 -11 -556 6 -46 13 -111 16 -143 3 -33 10
-65 15 -71 5 -6 12 -29 15 -50 9 -59 11 -69 18 -85 4 -8 15 -42 26 -75 29 -88
44 -125 53 -125 4 0 8 -7 8 -15 0 -8 11 -31 25 -51 14 -20 25 -44 25 -54 0 -9
10 -26 23 -37 31 -28 57 -61 57 -73 0 -6 5 -10 10 -10 6 0 10 -6 10 -14 0 -8
8 -17 19 -21 10 -3 32 -21 50 -40 17 -19 36 -35 42 -35 6 0 20 -11 31 -26 11
-14 23 -23 26 -20 3 3 10 -1 17 -10 6 -9 23 -17 38 -17 15 -1 27 -8 27 -14 0
-27 32 -11 88 45 65 63 115 136 157 227 15 33 31 68 36 77 5 10 9 27 9 37 0
11 4 22 9 25 9 6 29 88 56 224 22 114 22 455 0 567 -32 165 -54 241 -96 330
-15 33 -32 71 -38 85 -17 39 -26 51 -102 144 -40 49 -110 106 -128 106 -5 0
-16 6 -23 13 -13 13 -115 38 -147 36 -9 0 -38 -6 -66 -13z m197 -57 c54 -27
47 -32 -9 -8 -65 28 -162 28 -226 0 -64 -28 -72 -26 -20 3 24 14 57 27 75 29
55 8 141 -4 180 -24z m-317 -49 c-10 -11 -22 -20 -28 -20 -5 0 1 9 14 20 31
25 37 25 14 0z m425 -23 c0 -4 -11 0 -25 9 -14 9 -25 20 -25 26 0 11 49 -23
50 -35z m25 -17 c3 -5 1 -10 -4 -10 -6 0 -11 5 -11 10 0 6 2 10 4 10 3 0 8 -4
11 -10z m40 -50 l20 -25 -22 19 c-13 11 -23 24 -23 29 0 6 1 8 3 6 1 -2 11
-15 22 -29z m-602 -25 c-3 -9 -8 -14 -10 -11 -3 3 -2 9 2 15 9 16 15 13 8 -4z
m804 -477 c-3 -8 -6 -5 -6 6 -1 11 2 17 5 13 3 -3 4 -12 1 -19z"/>
<path d="M6700 8099 c-93 -37 -125 -140 -75 -240 28 -55 136 -169 160 -169 30
0 93 40 128 81 87 101 68 256 -38 316 -43 25 -129 30 -175 12z"/>
<path d="M6418 7021 c-139 -88 -170 -311 -61 -432 61 -68 121 -92 238 -97 84
-3 111 0 165 18 63 21 130 62 130 79 0 10 -406 454 -418 459 -4 1 -29 -11 -54
-27z"/>
<path d="M9495 6065 c-107 -29 -213 -110 -268 -203 -50 -86 -67 -145 -67 -237
0 -133 47 -241 143 -333 90 -84 186 -122 312 -122 131 0 241 46 326 137 90 96
129 191 129 319 0 297 -287 517 -575 439z m287 -93 c130 -64 208 -183 216
-327 9 -166 -68 -297 -215 -367 -196 -93 -429 -10 -520 186 -25 54 -28 72 -28
161 0 89 3 107 28 160 45 97 137 177 242 212 24 8 74 12 126 10 74 -3 96 -8
151 -35z"/>
<path d="M9652 5670 c-64 -39 -89 -118 -57 -179 26 -52 71 -81 123 -81 82 0
142 59 142 139 0 109 -116 177 -208 121z"/>
<path d="M10651 6064 c-104 -28 -231 -128 -278 -218 -76 -148 -72 -318 11
-460 37 -63 128 -143 203 -179 58 -27 82 -32 165 -35 72 -3 109 0 150 13 200
65 329 239 327 441 -3 301 -287 516 -578 438z m285 -89 c67 -33 152 -113 182
-171 51 -101 54 -238 9 -337 -36 -80 -113 -158 -190 -193 -55 -26 -73 -29
-162 -29 -91 0 -106 3 -165 31 -151 72 -241 236 -219 397 11 84 54 169 113
225 91 86 162 113 287 109 70 -2 96 -8 145 -32z"/>
<path d="M10624 5681 c-11 -5 -34 -25 -52 -45 -27 -31 -32 -45 -32 -88 0 -47
4 -54 44 -94 39 -40 48 -44 91 -44 30 0 59 7 80 20 112 69 70 247 -62 256 -26
2 -57 0 -69 -5z"/>
</g>
</svg>
